<svg width="41" height="41" viewBox="0 0 41 41" fill="none" xmlns="http://www.w3.org/2000/svg">
<path d="M31.3923 20.461C31.3944 22.5848 30.7648 24.6612 29.5836 26.4262C28.4024 28.1913 26.723 29.5652 24.7589 30.3732C22.7947 31.1836 20.6346 31.3944 18.5508 30.9789C16.467 30.5635 14.5528 29.5405 13.0495 28.0389C11.5475 26.5371 10.5255 24.623 10.113 22.5394C9.70053 20.4559 9.91619 18.2967 10.7326 16.3359C11.5491 14.3751 12.9296 12.701 14.6989 11.5259C16.4682 10.3509 18.5467 9.72778 20.6707 9.73574C23.5166 9.73656 26.2459 10.8665 28.2595 12.8776C29.2543 13.8737 30.0429 15.0562 30.5801 16.3575C31.1174 17.6587 31.3928 19.0532 31.3905 20.461M4.91635 22.35H2.838C2.33665 22.35 1.85578 22.1511 1.50094 21.797C1.1461 21.4428 0.946268 20.9623 0.945313 20.461C0.945075 20.2125 0.993894 19.9665 1.08897 19.7369C1.18405 19.5074 1.32351 19.2989 1.49936 19.1234C1.6752 18.9479 1.88397 18.8088 2.11369 18.7141C2.34341 18.6195 2.58955 18.5712 2.838 18.5719H4.91635C5.41769 18.5719 5.89856 18.7708 6.2534 19.1249C6.60825 19.4791 6.80808 19.9596 6.80903 20.461C6.80927 20.7094 6.76045 20.9554 6.66537 21.185C6.5703 21.4145 6.43083 21.623 6.25499 21.7985C6.07914 21.974 5.87037 22.1131 5.64065 22.2078C5.41094 22.3024 5.16479 22.3507 4.91635 22.35ZM38.7089 22.35H36.6486C36.1475 22.3496 35.6671 22.1504 35.3127 21.7963C34.9582 21.4422 34.7586 20.962 34.7577 20.461C34.7574 20.2125 34.8063 19.9665 34.9013 19.7369C34.9964 19.5074 35.1359 19.2989 35.3117 19.1234C35.4876 18.9479 35.6963 18.8088 35.9261 18.7141C36.1558 18.6195 36.4019 18.5712 36.6504 18.5719H38.7107C39.2117 18.5723 39.6921 18.7715 40.0466 19.1256C40.401 19.4797 40.6006 19.9599 40.6016 20.461C40.6018 20.7094 40.553 20.9554 40.4579 21.185C40.3628 21.4145 40.2234 21.623 40.0475 21.7985C39.8717 21.974 39.6629 22.1131 39.4332 22.2078C39.2035 22.3024 38.9573 22.3507 38.7089 22.35ZM20.7464 6.48753C20.2451 6.48753 19.7642 6.28862 19.4093 5.93445C19.0545 5.58028 18.8547 5.0998 18.8537 4.59845V2.52191C18.8535 2.27331 18.9024 2.02711 18.9975 1.79745C19.0927 1.5678 19.2324 1.35921 19.4084 1.18368C19.5844 1.00814 19.7934 0.869115 20.0233 0.774583C20.2533 0.680051 20.4996 0.631876 20.7482 0.632826C21.2492 0.633303 21.7296 0.832425 22.0841 1.18654C22.4386 1.54066 22.6381 2.02087 22.6391 2.52191V4.59845C22.6393 4.8469 22.5905 5.09295 22.4954 5.32249C22.4004 5.55202 22.2609 5.76053 22.085 5.93604C21.9092 6.11155 21.7004 6.25061 21.4707 6.34525C21.241 6.43989 20.9948 6.48824 20.7464 6.48753ZM20.7464 40.2891C20.2454 40.2891 19.7648 40.0904 19.41 39.7366C19.0552 39.3829 18.8551 38.9028 18.8537 38.4018V36.3234C18.8535 36.075 18.9023 35.829 18.9974 35.5994C19.0924 35.3699 19.2319 35.1614 19.4078 34.9859C19.5836 34.8103 19.7924 34.6713 20.0221 34.5766C20.2518 34.482 20.498 34.4337 20.7464 34.4344C21.2474 34.4348 21.7278 34.634 22.0823 34.9881C22.4367 35.3422 22.6363 35.8224 22.6373 36.3234V38.4C22.6375 38.6484 22.5887 38.8945 22.4936 39.124C22.3986 39.3536 22.2591 39.5621 22.0832 39.7376C21.9074 39.9131 21.6986 40.0522 21.4689 40.1468C21.2392 40.2414 20.9948 40.2898 20.7464 40.2891ZM9.51287 11.1327C9.26273 11.1318 9.01526 11.0813 8.78475 10.9841C8.55425 10.887 8.34529 10.7451 8.16996 10.5667L6.69367 9.11205C6.42738 8.84708 6.24588 8.50893 6.17223 8.14056C6.09858 7.77219 6.13611 7.39025 6.28004 7.04326C6.42398 6.69627 6.66782 6.3999 6.98059 6.19182C7.29335 5.98375 7.66092 5.87335 8.03657 5.87466C8.54129 5.87466 9.02437 6.07475 9.37948 6.42985L10.8558 7.90254C11.2082 8.25627 11.4061 8.73527 11.4061 9.23463C11.4061 9.73398 11.2082 10.213 10.8558 10.5667C10.6804 10.7451 10.4715 10.887 10.241 10.9841C10.0105 11.0813 9.763 11.1318 9.51287 11.1327ZM33.4346 34.9643C32.9382 34.9625 32.4624 34.7657 32.1097 34.4163L30.6352 32.9437C30.2815 32.6466 30.049 32.23 29.9818 31.773C29.9146 31.3159 30.0174 30.8501 30.2707 30.4638C30.5239 30.0775 30.9101 29.7974 31.356 29.6767C31.8019 29.5561 32.2766 29.6031 32.6901 29.809C32.9257 29.9244 33.13 30.0818 33.303 30.2813L34.7775 31.754C35.1294 32.1076 35.327 32.5862 35.327 33.0852C35.327 33.5841 35.1294 34.0627 34.7775 34.4163C34.6007 34.5915 34.3911 34.73 34.1606 34.8241C33.9302 34.9181 33.6835 34.9658 33.4346 34.9643ZM31.9781 11.1327C31.6978 11.1338 31.4207 11.0726 31.1669 10.9535C30.9131 10.8344 30.689 10.6604 30.5106 10.4441C30.3323 10.2278 30.2042 9.97464 30.1357 9.7028C30.0671 9.43097 30.0598 9.14731 30.1143 8.87231C30.1864 8.50459 30.3703 8.16751 30.637 7.90254L32.1115 6.42985C32.4712 6.09643 32.9463 5.91565 33.4366 5.9256C33.9269 5.93555 34.3943 6.13545 34.7401 6.48318C35.086 6.83091 35.2834 7.29932 35.2907 7.78971C35.298 8.2801 35.1147 8.75418 34.7793 9.11205L33.3012 10.5667C32.9519 10.9222 32.4765 11.1256 31.9781 11.1327ZM8.03657 34.9643C7.7877 34.9658 7.54098 34.9181 7.31055 34.8241C7.08011 34.73 6.87049 34.5915 6.69367 34.4163C6.34132 34.0629 6.14347 33.5842 6.14347 33.0852C6.14347 32.5861 6.34132 32.1074 6.69367 31.754L8.16996 30.2813C8.34588 30.1042 8.5551 29.9636 8.78557 29.8676C9.01605 29.7717 9.26322 29.7223 9.51287 29.7223C9.76251 29.7223 10.0097 29.7717 10.2402 29.8676C10.4706 29.9636 10.6799 30.1042 10.8558 30.2813C11.2077 30.6349 11.4052 31.1136 11.4052 31.6125C11.4052 32.1114 11.2077 32.59 10.8558 32.9437L9.37948 34.4163C9.20266 34.5915 8.99303 34.73 8.7626 34.8241C8.53216 34.9181 8.28545 34.9658 8.03657 34.9643Z" fill="#FFE08E"/>
</svg>
